Coordinates
version=1
nRows=29
nColumns=22
inDegrees=yes

Units are S.I. units (second, meters, Newtons, ...)
If the header above contains a line with 'inDegrees', this indicates whether rotational values are in degrees (yes) or radians (no).

endheader
time	pelvis_tilt	pelvis_list	pelvis_rotation	pelvis_tx	pelvis_ty	pelvis_tz	hip_flexion_r	hip_adduction_r	hip_rotation_r	knee_angle_r	ankle_angle_r	subtalar_angle_r	hip_flexion_l	hip_adduction_l	hip_rotation_l	knee_angle_l	ankle_angle_l	subtalar_angle_l	lumbar_extension	lumbar_bending	lumbar_rotation
      0.01000000	     -2.45684666	     -2.05773177	     -0.59226002	     -1.20801185	      0.94582785	      0.62385417	      3.01981339	      2.31931898	    -14.46930492	     -9.85405479	      9.91926429	      0.49872014	      3.67539176	     -3.99383361	     -6.01528410	    -10.75901534	     11.90380135	      2.39719529	     -6.80506076	     -0.34979836	     -5.70803685
      0.02000000	     -2.43797282	     -2.05481978	     -0.61296720	     -1.20750710	      0.94579718	      0.62450528	      3.02921427	      2.34453386	    -14.44644920	     -9.97179421	     10.04658220	      0.44931828	      3.68101503	     -4.03565396	     -6.03425184	    -10.87064295	     11.94371891	      2.39829469	     -6.89264224	     -0.36320088	     -5.71791297
      0.03000000	     -2.42178304	     -2.04905983	     -0.64432855	     -1.20690369	      0.94574946	      0.62529634	      3.04999432	      2.37275114	    -14.40805478	    -10.11789082	     10.18443692	      0.39669604	      3.69550479	     -4.08305209	     -6.05701383	    -11.00768333	     11.99341315	      2.38562309	     -6.98596691	     -0.38152558	     -5.72439023
      0.04000000	     -2.40559957	     -2.04329709	     -0.68750194	     -1.20622371	      0.94569015	      0.62620300	      3.07354379	      2.40717710	    -14.35433170	    -10.27787443	     10.31893230	      0.34377496	      3.71777644	     -4.13739080	     -6.08206191	    -11.17218039	     12.05041567	      2.35762907	     -7.08713553	     -0.39890311	     -5.73029639
      0.05000000	     -2.38589715	     -2.03887545	     -0.73520841	     -1.20547469	      0.94562300	      0.62720202	      3.09056457	      2.44968958	    -14.28525856	    -10.44349977	     10.45113779	      0.29107103	      3.74515742	     -4.19973675	     -6.11515597	    -11.36394997	     12.11613399	      2.31452859	     -7.19725387	     -0.41710692	     -5.72989768
      0.06000000	     -2.36356580	     -2.03494255	     -0.79299449	     -1.20467371	      0.94555106	      0.62827623	      3.10088605	      2.49809568	    -14.20106964	    -10.60807420	     10.57421744	      0.23207278	      3.77487460	     -4.26735020	     -6.15403448	    -11.57613415	     12.18800320	      2.25606164	     -7.31215518	     -0.43457343	     -5.72578499
      0.07000000	     -2.33923977	     -2.03353919	     -0.85875287	     -1.20382157	      0.94547107	      0.62941291	      3.10360319	      2.55429258	    -14.10650237	    -10.76889568	     10.69512625	      0.16236569	      3.80810120	     -4.34220476	     -6.20597996	    -11.81051460	     12.27023872	      2.18089425	     -7.42839302	     -0.45066923	     -5.71602604
      0.08000000	     -2.31440247	     -2.03494017	     -0.93240325	     -1.20292898	      0.94538215	      0.63060143	      3.10078679	      2.61781162	    -14.00204657	    -10.92587783	     10.80555658	      0.08736568	      3.84644422	     -4.42412674	     -6.26257341	    -12.06554491	     12.35898114	      2.09255832	     -7.54519780	     -0.46251227	     -5.70230327
      0.09000000	     -2.29088554	     -2.04036197	     -1.01283519	     -1.20199928	      0.94528254	      0.63184511	      3.09339490	      2.69066392	    -13.89211381	    -11.07442481	     10.90222337	      0.01978437	      3.89129519	     -4.51445947	     -6.31976867	    -12.33942407	     12.45246455	      1.99828110	     -7.65877276	     -0.47206530	     -5.68592234
      0.10000000	     -2.26961599	     -2.05160547	     -1.10190987	     -1.20102980	      0.94516645	      0.63313971	      3.08294374	      2.77400177	    -13.77372642	    -11.21724566	     10.98771089	     -0.03600578	      3.94751234	     -4.61519920	     -6.37822433	    -12.64058636	     12.55687618	      1.89721254	     -7.76657338	     -0.47470841	     -5.66529056
      0.11000000	     -2.25081374	     -2.06904781	     -1.19712572	     -1.20002042	      0.94503146	      0.63448901	      3.06897196	      2.86873182	    -13.65152119	    -11.35313140	     11.06491986	     -0.07523417	      4.01668998	     -4.72683869	     -6.43098874	    -12.97067405	     12.66963957	      1.79448012	     -7.86834765	     -0.47068019	     -5.64243789
      0.12000000	     -2.23290261	     -2.09458827	     -1.29823000	     -1.19897755	      0.94487622	      0.63589119	      3.05110990	      2.97565555	    -13.52836768	    -11.48431505	     11.14199406	     -0.10122266	      4.10220243	     -4.85181257	     -6.47502053	    -13.33850715	     12.79416559	      1.69088934	     -7.96905678	     -0.45756586	     -5.61850481
      0.13000000	     -2.21756925	     -2.13135322	     -1.40396427	     -1.19788752	      0.94469618	      0.63733899	      3.03096894	      3.09778577	    -13.40730016	    -11.61219470	     11.22353336	     -0.12384365	      4.20959098	     -4.99289009	     -6.50907264	    -13.75217309	     12.93848347	      1.57896643	     -8.06132990	     -0.43065401	     -5.59310779
      0.14000000	     -2.25246555	     -2.18489601	     -1.51830738	     -1.19679807	      0.94441234	      0.63884444	      3.07240099	      3.24174350	    -13.27391516	    -11.75389430	     11.26770897	     -0.19000414	      4.40373793	     -5.15692205	     -6.50565788	    -14.23277072	     13.14586755	      1.37032238	     -8.09510272	     -0.38406569	     -5.54191043
      0.15000000	     -2.20829836	     -2.23942304	     -1.61165400	     -1.19562404	      0.94422315	      0.64036298	      3.00773074	      3.38595277	    -13.18688218	    -11.87384611	     11.42465516	     -0.20911470	      4.53361576	     -5.32654909	     -6.50928363	    -14.75511641	     13.26895268	      1.29066513	     -8.22287423	     -0.33567876	     -5.55231854
      0.16000000	     -2.24207512	     -2.33451176	     -1.71442027	     -1.19447405	      0.94387068	      0.64195711	      3.03466722	      3.58251493	    -13.07618615	    -12.00394217	     11.49120198	     -0.31522503	      4.80555893	     -5.54916643	     -6.45875348	    -15.39084351	     13.54814083	      1.12078951	     -8.26013942	     -0.24262472	     -5.49829195
      0.17000000	     -2.26442457	     -2.44079128	     -1.80918961	     -1.19331796	      0.94349835	      0.64354994	      3.05776553	      3.78872598	    -12.95913367	    -12.15745203	     11.61748946	     -0.44193644	      5.11161288	     -5.78710909	     -6.39147838	    -16.10776351	     13.78260765	      0.96562279	     -8.31863066	     -0.12551435	     -5.50951455
      0.18000000	     -2.28584262	     -2.57101056	     -1.89734231	     -1.19214218	      0.94307970	      0.64520796	      3.06698019	      4.02889266	    -12.84035196	    -12.29257526	     11.75593361	     -0.58347817	      5.47200927	     -6.06064917	     -6.29751364	    -16.92545991	     14.03881269	      0.84156501	     -8.38387535	      0.00942252	     -5.50198838
      0.19000000	     -2.29326215	     -2.73340337	     -1.98677363	     -1.19093237	      0.94262669	      0.64688045	      3.05076702	      4.30529573	    -12.71199255	    -12.41660892	     11.89113552	     -0.72237883	      5.86883958	     -6.37196173	     -6.17431193	    -17.84281731	     14.34520789	      0.76251706	     -8.46915718	      0.18910334	     -5.48289555
      0.20000000	     -2.30027306	     -2.92488661	     -2.07341917	     -1.18971421	      0.94211482	      0.64859198	      3.02792728	      4.61764902	    -12.57261714	    -12.53612148	     12.03351316	     -0.87659553	      6.32628953	     -6.71987852	     -6.01476893	    -18.86790117	     14.66084653	      0.70973360	     -8.56278067	      0.40034019	     -5.46320044
      0.21000000	     -2.29750632	     -3.14707144	     -2.15931710	     -1.18846571	      0.94155302	      0.65030314	      2.98507646	      4.96361433	    -12.42674857	    -12.64555381	     12.16777956	     -1.03758594	      6.82774782	     -7.09947420	     -5.80986479	    -19.99505675	     14.99687395	      0.68932819	     -8.67151166	      0.65516854	     -5.43372068
      0.22000000	     -2.30644394	     -3.39344206	     -2.24004446	     -1.18721150	      0.94090486	      0.65202200	      2.94958696	      5.33712535	    -12.28577136	    -12.75120109	     12.33191337	     -1.23217738	      7.40808204	     -7.50576652	     -5.55445435	    -21.23687546	     15.29472650	      0.69057958	     -8.77457016	      0.94027345	     -5.39376961
      0.23000000	     -2.25005196	     -3.67380868	     -2.32322954	     -1.18590535	      0.94029641	      0.65373408	      2.82610135	      5.74526393	    -12.13232663	    -12.83605701	     12.44410764	     -1.36597433	      7.94970000	     -7.93823682	     -5.23944442	    -22.54574949	     15.64883794	      0.71627961	     -8.96305616	      1.26874201	     -5.34324367
      0.24000000	     -2.20338970	     -3.97347599	     -2.40158349	     -1.18460006	      0.93961456	      0.65543772	      2.70782410	      6.17261045	    -11.98943077	    -12.91528117	     12.57132472	     -1.51095361	      8.56057094	     -8.38565149	     -4.85690700	    -23.95684397	     15.94079817	      0.73978856	     -9.15086585	      1.62110472	     -5.27787343
      0.25000000	     -2.14057991	     -4.28493435	     -2.47780883	     -1.18328346	      0.93891751	      0.65712257	      2.56236454	      6.61072890	    -11.85492202	    -12.98055428	     12.69541496	     -1.63495462	      9.19836500	     -8.83281929	     -4.40875809	    -25.44780463	     16.18008537	      0.74932052	     -9.36918176	      1.98796958	     -5.19378002
      0.26000000	     -2.07892910	     -4.60469089	     -2.54925078	     -1.18197352	      0.93819842	      0.65876688	      2.41171176	      7.05426681	    -11.73117063	    -13.03544307	     12.80285537	     -1.74070926	      9.88586011	     -9.27285911	     -3.88742008	    -27.02057253	     16.34564363	      0.73602917	     -9.59927874	      2.36987385	     -5.09197058
      0.27000000	     -2.01405404	     -4.92073593	     -2.61395607	     -1.18067144	      0.93748943	      0.66036464	      2.25363518	      7.48958532	    -11.62161782	    -13.08371692	     12.90310921	     -1.81566554	     10.61550080	     -9.69014431	     -3.30370003	    -28.66575428	     16.41120506	      0.69443877	     -9.84709152	      2.74816964	     -4.96803472
      0.28000000	     -1.94116716	     -5.22201964	     -2.67458018	     -1.17937999	      0.93682435	      0.66192998	      2.08198053	      7.90601983	    -11.52723228	    -13.12054203	     12.99741756	     -1.85803244	     11.37786612	    -10.07316556	     -2.67511387	    -30.37370403	     16.36192646	      0.62860203	    -10.11958182	      3.10596561	     -4.82454466
      0.29000000	     -1.86070379	     -5.50294228	     -2.72618634	     -1.17807496	      0.93622009	      0.66344589	      1.89488542	      8.29701711	    -11.44865737	    -13.14513826	     13.08781864	     -1.88383650	     12.17679203	    -10.41488333	     -2.01657249	    -32.14692283	     16.18231006	      0.54747930	    -10.40860067	      3.43934641	     -4.66336438
